<svg width="613" height="613" viewBox="0 0 613 613" fill="none" xmlns="http://www.w3.org/2000/svg">
<path d="M434.208 217.104C455.367 217.104 472.521 199.951 472.521 178.792C472.521 157.633 455.367 140.479 434.208 140.479C413.049 140.479 395.896 157.633 395.896 178.792C395.896 199.951 413.049 217.104 434.208 217.104Z" fill="black"/>
<path d="M408.667 76.625C479.162 76.625 536.375 133.838 536.375 204.333V408.667C536.375 479.162 479.162 536.375 408.667 536.375H204.333C133.838 536.375 76.625 479.162 76.625 408.667V204.333C76.625 133.838 133.838 76.625 204.333 76.625H306.5H408.667Z" stroke="black" stroke-width="50" stroke-linecap="round" stroke-linejoin="round"/>
<path d="M306.5 204.333C362.947 204.333 408.666 250.053 408.666 306.5C408.666 362.947 362.947 408.666 306.5 408.666C250.053 408.666 204.333 362.947 204.333 306.5C204.333 250.053 250.053 204.333 306.5 204.333Z" stroke="black" stroke-width="50" stroke-linecap="round" stroke-linejoin="round"/>
</svg>
