<svg width="613" height="613" viewBox="0 0 613 613" fill="none" xmlns="http://www.w3.org/2000/svg">
<path d="M485.292 76.625C498.84 76.625 511.833 82.007 521.413 91.587C530.993 101.167 536.375 114.16 536.375 127.708V485.292C536.375 498.84 530.993 511.833 521.413 521.413C511.833 530.993 498.84 536.375 485.292 536.375H127.708C114.16 536.375 101.167 530.993 91.587 521.413C82.007 511.833 76.625 498.84 76.625 485.292V127.708C76.625 114.16 82.007 101.167 91.587 91.587C101.167 82.007 114.16 76.625 127.708 76.625H485.292ZM472.521 472.521V337.15C472.521 315.067 463.748 293.888 448.133 278.272C432.517 262.657 411.338 253.884 389.255 253.884C367.545 253.884 342.258 267.166 329.998 287.088V258.737H258.737V472.521H329.998V346.6C329.998 326.933 345.834 310.842 365.501 310.842C374.985 310.842 384.08 314.609 390.786 321.315C397.492 328.021 401.26 337.117 401.26 346.6V472.521H472.521ZM175.727 218.637C187.107 218.637 198.021 214.116 206.069 206.069C214.116 198.021 218.637 187.107 218.637 175.727C218.637 151.973 199.48 132.561 175.727 132.561C164.278 132.561 153.299 137.109 145.204 145.204C137.109 153.299 132.561 164.278 132.561 175.727C132.561 199.48 151.973 218.637 175.727 218.637ZM211.23 472.521V258.737H140.479V472.521H211.23Z" fill="black"/>
</svg>
