<svg xmlns="http://www.w3.org/2000/svg" fill="none" viewBox="0 0 24 24" id="Astro-Icon--Streamline-Svg-Logos" height="24" width="24">
  <desc>
    Astro Icon Streamline Icon: https://streamlinehq.com
  </desc>
  <path fill="#000000" d="M15.4775 0.838825c0.191925 0.2382825 0.2898 0.559815 0.48555 1.20288L20.239575 16.090075c-1.58115 -0.82025 -3.300025 -1.411825 -5.112775 -1.730975L12.342375 4.94965c-0.04555 -0.15395 -0.187 -0.259575 -0.347525 -0.259575 -0.160975 0 -0.30265 0.106175 -0.34785 0.26065L8.896275 14.35435c-1.82115 0.317725 -3.547875 0.910375 -5.135775 1.7336L8.057975 2.0384525c0.196375 -0.6419575 0.29455 -0.9629425 0.486525 -1.200785 0.16945 -0.209975 0.38985 -0.3730475 0.640225 -0.47368C9.468325 0.25 9.803975 0.25 10.4753 0.25h3.069475c0.6722 0 1.0083 0 1.29215 0.114225 0.250575 0.10084 0.471125 0.264245 0.640575 0.4746Z" stroke-width="0.25"></path>
  <path fill="#ff5d01" d="M15.989325 16.7586c-0.704975 0.60285 -2.112125 1.013975 -3.732975 1.013975 -1.989375 0 -3.65675 -0.619325 -4.099225 -1.452275 -0.158175 0.477375 -0.193625 1.023725 -0.193625 1.372725 0 0 -0.104225 1.713725 1.0877 2.9057 0 -0.618925 0.501775 -1.120675 1.120675 -1.120675 1.060825 0 1.05965 0.925525 1.058675 1.6764 -0.000025 0.0225 -0.00005 0.04485 -0.00005 0.067025 0 1.1397 0.69655 2.116675 1.68715 2.5285 -0.14795 -0.304325 -0.23095 -0.646075 -0.23095 -1.0072 0 -1.086975 0.63815 -1.4917 1.379825 -1.9621 0.5901 -0.37425 1.24575 -0.790075 1.6976 -1.6242 0.23575 -0.435225 0.369625 -0.9337 0.369625 -1.46345 0 -0.325775 -0.0506 -0.63975 -0.144425 -0.934425Z" stroke-width="0.25"></path>
</svg>