<svg xmlns="http://www.w3.org/2000/svg" fill="none" viewBox="0 0 24 24" id="Html-5--Streamline-Svg-Logos" height="24" width="24">
  <desc>
    Html 5 Streamline Icon: https://streamlinehq.com
  </desc>
  <path fill="#e44d26" d="m20.32445 4.8683 -1.51675 16.99155L11.9898 23.75l-6.7991 -1.8875 -1.515175 -16.9942h16.648925Z" stroke-width="0.25"></path>
  <path fill="#f16529" d="m11.99975 22.30525 5.5092 -1.52735 1.296175 -14.520075H11.99975V22.30525Z" stroke-width="0.25"></path>
  <path fill="#ebebeb" d="M9.051525 10.4264h2.948525v-2.084275H6.773675l0.0499 0.559175 0.512275 5.743675h4.6642v-2.08425H9.242l-0.190475 -2.134325Z" stroke-width="0.25"></path>
  <path fill="#ebebeb" d="M9.521 15.68715h-2.0923l0.292025 3.2726 4.269475 1.18525 0.009575 -0.002675v-2.168525l-0.009125 0.00245 -2.321275 -0.6268 -0.148375 -1.6623Z" stroke-width="0.25"></path>
  <path fill="#000000" d="M5.2246 0.25h1.0592v1.046485h0.968925V0.25h1.05925v3.169h-1.0592V2.35784h-0.968925V3.419h-1.0592L5.2246 0.25Z" stroke-width="0.25"></path>
  <path fill="#000000" d="M9.704925 1.30089h-0.932475V0.25h2.92465v1.05089h-0.932875V3.419h-1.05925l-0.00005 -2.11811Z" stroke-width="0.25"></path>
  <path fill="#000000" d="M12.161125 0.25h1.10445l0.6794 1.113495L14.623675 0.25h1.104875v3.169h-1.05485V1.848275l-0.728725 1.12675h-0.018225l-0.729225 -1.12675v1.570725h-1.0364V0.25Z" stroke-width="0.25"></path>
  <path fill="#000000" d="M16.25585 0.25h1.059525v2.1215175h1.48955V3.419H16.25585V0.25Z" stroke-width="0.25"></path>
  <path fill="#ffffff" d="M11.992925 14.645h2.56655l-0.241925 2.703125 -2.324625 0.62745v2.168425l4.272875 -1.184225 0.03135 -0.35215 0.489775 -5.4872 0.05085 -0.559675H11.992925v2.08425Z" stroke-width="0.25"></path>
  <path fill="#ffffff" d="M11.992925 10.421325v0.005075h5.0345l0.041825 -0.468475 0.09495 -1.056625 0.04985 -0.559175H11.992925v2.0792Z" stroke-width="0.25"></path>
</svg>