<?xml version="1.0" standalone="no"?>
<svg id="Group50" width="10479" height="1899" viewBox="0 0 10479 1899" fill="none" xmlns="http://www.w3.org/2000/svg" style="max-width: 100%; max-height: 100%;">
<path d="M7845.47 187.191C6611.59 254.782 7530.21 197.404 5705.48 292.352C5218.63 317.686 4563.84 365.973 4005.42 421.128C3170.21 503.622 2400.16 578.667 1419.55 768.264C1103.36 829.399 351.068 979.85 147.726 1168.19C-166.001 1553.82 1906.63 1629.38 2583.61 1641.71C3103.46 1651.17 3198.64 1662.44 4508.06 1620.01C6109.33 1568.14 6783.27 1485.32 7533.77 1403.61C8284.27 1321.9 9084.77 1177.95 9752.35 1012.47C10084.6 930.123 10336.9 810.068 10369.5 713.374C10456.2 456.16 9342.64 351.399 8822.42 320.506C7940.63 268.141 6105.06 251.312 5703.6 234.188" stroke="#FF6D1F" stroke-width="25" stroke-linecap="round" stroke-dasharray="0,0,0,23150.611328125"><animate attributeType="XML" attributeName="stroke-dasharray" repeatCount="1" dur="4.545454545454546s" values="0,0,0,23150.611328125; 
          0,11575.3056640625,11575.3056640625,0; 
          23150.611328125,0,0,0" keyTimes="0; 0.5; 1" fill="freeze"></animate></path>
<path d="M7937.48 187.392C7938.4 215.985 7825.67 237.082 7692.59 241.394C7581.2 233.485 7780.02 221.116 7779.1 192.523C7778.17 163.93 7556.92 165.17 7690 160.858C7823.07 156.547 7936.55 158.799 7937.48 187.392Z" fill="white" stroke-dasharray="0,0,0,861.7855834960938"><animate attributeType="XML" attributeName="stroke-dasharray" repeatCount="1" dur="4.545454545454546s" values="0,0,0,861.7855834960938; 
          0,430.8927917480469,430.8927917480469,0; 
          861.7855834960938,0,0,0" keyTimes="0; 0.5; 1" fill="freeze"></animate></path>
</svg>